#!OML:ASF H:\Terrain\Walking\May29\JustinRory\Justin.ASF
:FULLY-SPECIFIED
:DEGREES
163
root 8.29746 16.5196 12.6237 -204.351 -80.7354 210.547
lowerback 17.6417 -0.536992 -1.64255
upperback 4.64972 -1.12653 3.10776
thorax -4.79689 -0.677563 4.49773
lowerneck 2.89392 -20.0614 -18.2139
upperneck -0.39999 -28.5208 23.8119
head 5.56967 -14.3069 7.52608
rclavicle -1.11816e-015 8.34896e-015
rhumerus -21.2021 -44.0837 -9.02845
rradius 28.7405
rwrist -40.7966
rhand -11.3537 4.68541
rfingers 7.12502
rthumb 14.6797 -24.7749
lclavicle -1.11816e-015 8.34896e-015
lhumerus -33.0802 24.602 35.4728
lradius 33.9544
lwrist 1.92136
lhand -7.26419 44.3759
lfingers 7.12502
lthumb 18.6167 73.5051
rfemur -17.0112 -10.099 7.79627
rtibia 41.5627
rfoot -21.1053 -2.88012
rtoes -28.0644
lfemur -36.3969 17.4956 -5.87868
ltibia 58.297
lfoot -20.7583 -2.10915
ltoes -20.1486
164
root 8.30711 16.4735 12.6796 -200.576 -81.2401 206.496
lowerback 17.9476 -0.625648 -2.24176
upperback 4.96402 -1.38435 2.9581
thorax -4.58984 -0.818682 4.73832
lowerneck 2.53435 -20.05 -18.4013
upperneck -0.466034 -28.4639 24.009
head 5.65882 -14.2582 7.57122
rclavicle -4.45526e-014 1.18525e-014
rhumerus -20.8524 -45.477 -9.17747
rradius 28.7598
rwrist -40.4613
rhand -10.3816 4.34909
rfingers 7.12502
rthumb 15.6161 -25.0406
lclavicle -4.45526e-014 1.18525e-014
lhumerus -33.9041 24.5538 34.9936
lradius 34.1823
lwrist 3.78544
lhand -7.35112 44.1747
lfingers 7.12502
lthumb 18.5331 73.3118
rfemur -17.2291 -10.6275 6.60633
rtibia 42.4468
rfoot -21.3581 -3.41958
rtoes -31.9701
lfemur -37.005 18.2659 -7.04541
ltibia 59.2597
lfoot -20.8361 -3.29486
ltoes -17.2514
165
root 8.31868 16.395 12.7301 -196.559 -82.1613 202.322
lowerback 18.2998 -0.787638 -2.74888
upperback 5.08197 -1.71173 2.73428
thorax -4.60989 -0.980671 4.86854
lowerneck 2.62147 -20.0281 -18.2107
upperneck -0.940943 -28.3486 24.0607
head 5.4595 -14.2291 7.61628
rclavicle -1.58158e-014 -1.09332e-015
rhumerus -21.1215 -45.7256 -9.06246
rradius 29.2014
rwrist -41.5486
rhand -9.24907 3.69796
rfingers 7.12502
rthumb 16.7067 -25.6031
lclavicle -1.58158e-014 -1.09332e-015
lhumerus -34.503 24.5166 34.5044
lradius 34.2247
lwrist 5.04133
lhand -7.34523 43.5739
lfingers 7.12502
lthumb 18.5388 72.7105
rfemur -17.3704 -11.2523 5.29713
rtibia 43.2275
rfoot -21.584 -4.28857
rtoes -35.0601
lfemur -37.9593 18.9524 -8.73694
ltibia 59.8793
lfoot -20.7932 -2.47843
ltoes -24.4869
166
root 8.32801 16.3651 12.7708 -192.099 -82.9606 197.921
lowerback 18.5755 -0.927364 -3.21733
upperback 5.01826 -1.99056 2.51758
thorax -4.78641 -1.1056 4.97725
lowerneck 2.91249 -19.9477 -17.9116
upperneck -1.47704 -28.1744 24.1337
head 5.18624 -14.1892 7.69568
rclavicle -1.2598e-014 1.94312e-014
rhumerus -21.4818 -46.0265 -8.7305
rradius 29.3094
rwrist -41.9415
rhand -8.39871 3.26014
rfingers 7.12502
rthumb 17.5252 -25.9699
lclavicle -1.2598e-014 1.94312e-014
lhumerus -35.223 24.843 33.8576
lradius 34.1271
lwrist 5.50029
lhand -6.84285 42.5868
lfingers 7.12502
lthumb 19.022 71.6766
rfemur -17.559 -11.6546 4.24708
rtibia 43.9134
rfoot -21.75 -4.2109
rtoes -34.5943
lfemur -38.8533 19.2901 -10.0512
ltibia 60.5575
lfoot -20.8645 -3.26431
ltoes -23.1904
167
root 8.34025 16.3405 12.8081 -192.121 -83.4519 198.043
lowerback 18.8671 -1.06496 -3.03706
upperback 4.932 -2.14066 2.49499
thorax -5.02477 -1.17018 4.89844
lowerneck 3.8713 -19.9409 -17.8506
upperneck -2.54665 -28.1516 24.6839
head 4.79506 -14.2914 7.99364
rclavicle 5.45105e-014 -1.799e-014
rhumerus -21.831 -46.4454 -8.17783
rradius 29.1334
rwrist -41.3903
rhand -8.14312 3.06938
rfingers 7.12502
rthumb 17.7711 -26.1386
lclavicle 5.45105e-014 -1.799e-014
lhumerus -35.7899 24.8561 33.4754
lradius 33.8621
lwrist 5.40191
lhand -6.08374 41.8605
lfingers 7.12502
lthumb 19.7519 70.877
rfemur -17.7691 -11.6008 3.94654
rtibia 44.5942
rfoot -22.1098 -4.16686
rtoes -32.5514
lfemur -39.6415 19.662 -10.5256
ltibia 61.1817
lfoot -20.6377 -4.10007
ltoes -23.5462
168
root 8.35114 16.3231 12.8506 -196.028 -84.145 202.154
lowerback 19.0092 -1.39513 -2.43553
upperback 4.88171 -2.45114 2.6512
thorax -5.1401 -1.32247 4.79998
lowerneck 6.03916 -20.0282 -17.6579
upperneck -4.85552 -28.2197 25.8225
head 3.95191 -14.586 8.61826
rclavicle 3.2843e-014 -8.94531e-016
rhumerus -21.9623 -46.9055 -7.74054
rradius 29.1122
rwrist -40.6867
rhand -8.05079 2.80361
rfingers 7.12502
rthumb 17.86 -26.3963
lclavicle 3.2843e-014 -8.94531e-016
lhumerus -36.2388 24.4491 33.4876
lradius 33.6598
lwrist 5.64325
lhand -6.2263 41.871
lfingers 7.12502
lthumb 19.6148 70.9015
rfemur -17.9594 -11.7183 4.03053
rtibia 45.1254
rfoot -22.6327 -5.04179
rtoes -32.4309
lfemur -40.6461 19.6507 -10.625
ltibia 61.9373
lfoot -20.1838 -5.32715
ltoes -22.4518
169
root 8.3595 16.3042 12.8929 -202.355 -84.802 208.685
lowerback 19.1655 -1.73382 -1.61798
upperback 4.82568 -2.73078 2.76813
thorax -5.28812 -1.46099 4.53177
lowerneck 9.09034 -20.1807 -16.7294
upperneck -7.93175 -28.2454 27.2557
head 2.69614 -14.9947 9.4386
rclavicle -5.02304e-014 8.10048e-015
rhumerus -22.341 -47.5086 -7.22144
rradius 29.3112
rwrist -40.5659
rhand -7.27998 2.348
rfingers 7.12502
rthumb 18.6015 -26.7826
lclavicle -5.02304e-014 8.10048e-015
lhumerus -36.4879 23.9163 33.5846
lradius 33.5009
lwrist 5.63948
lhand -6.35754 41.9837
lfingers 7.12502
lthumb 19.4886 71.027
rfemur -18.1349 -11.9687 4.25063
rtibia 45.5762
rfoot -22.9822 -5.7419
rtoes -32.6697
lfemur -41.6073 19.2862 -10.502
ltibia 62.7153
lfoot -19.8889 -6.55436
ltoes -20.092
170
root 8.37079 16.2718 12.934 -206.173 -85.1715 212.561
lowerback 19.483 -1.85668 -1.19112
upperback 4.80914 -2.80401 2.91446
thorax -5.47951 -1.4982 4.48164
lowerneck 9.00447 -20.3778 -16.7335
upperneck -7.93138 -28.5015 27.2802
head 2.7684 -15.1137 9.38216
rclavicle 4.88016e-014 -5.84427e-014
rhumerus -22.8138 -48.4934 -6.22495
rradius 28.9948
rwrist -38.4077
rhand -7.84554 2.553
rfingers 7.12502
rthumb 18.0575 -26.6288
lclavicle 4.88016e-014 -5.84427e-014
lhumerus -36.7431 23.537 33.8205
lradius 33.3186
lwrist 5.0533
lhand -5.78394 41.6799
lfingers 7.12502
lthumb 20.04 70.6665
rfemur -18.2498 -11.9461 4.21597
rtibia 45.9348
rfoot -23.0168 -5.8727
rtoes -31.3672
lfemur -42.2741 18.9032 -10.4578
ltibia 63.5065
lfoot -19.8542 -7.37534
ltoes -17.6378
171
root 8.38346 16.246 12.9788 -206.487 -85.4638 213.138
lowerback 19.5315 -1.88164 -1.1075
upperback 4.78676 -2.81179 3.04703
thorax -5.52529 -1.5018 4.5828
lowerneck 2.91495 -20.2845 -17.6641
upperneck -2.35174 -28.4053 23.8691
head 4.88637 -14.3303 7.57771
rclavicle -2.56432e-014 3.8763e-015
rhumerus -22.9684 -48.542 -5.69693
rradius 29.0358
rwrist -38.1007
rhand -8.01211 2.12281
rfingers 7.12502
rthumb 17.8972 -27.0737
lclavicle -2.56432e-014 3.8763e-015
lhumerus -36.96 23.2631 34.2183
lradius 33.2048
lwrist 4.4572
lhand -5.88051 41.3468
lfingers 7.12502
lthumb 19.9472 70.343
rfemur -18.6219 -11.8522 3.99747
rtibia 46.2106
rfoot -22.9945 -6.17844
rtoes -30.3564
lfemur -43.1689 18.5546 -10.7363
ltibia 64.3196
lfoot -19.9882 -7.67254
ltoes -18.0857
172
root 8.394 16.2229 13.022 -210.742 -85.3916 217.652
lowerback 19.5011 -1.86582 -0.561605
upperback 4.82117 -2.68133 3.19626
thorax -5.50037 -1.44688 4.39892
lowerneck 2.95852 -20.3683 -17.6104
upperneck -2.51618 -28.5178 24.0974
head 4.88496 -14.3966 7.62114
rclavicle 3.16068e-014 -3.67752e-014
rhumerus -23.3863 -48.2824 -5.15672
rradius 29.2002
rwrist -38.4643
rhand -8.00317 1.63108
rfingers 7.12502
rthumb 17.9058 -27.5646
lclavicle 3.16068e-014 -3.67752e-014
lhumerus -36.9346 23.1691 34.6752
lradius 33.0241
lwrist 3.43229
lhand -6.62762 40.7416
lfingers 7.12502
lthumb 19.2289 69.8109
rfemur -18.9849 -11.5371 4.36383
rtibia 46.389
rfoot -23.0871 -7.3808
rtoes -32.0127
lfemur -44.0211 18.4253 -10.448
ltibia 65.1393
lfoot -20.0673 -8.22852
ltoes -19.4565
